# xmcd CD database file
#
# Track frame offsets:
#	150
#	30967
#	44425
#	63537
#	72432
#	83055
#	109815
#	120842
#	131367
#	150695
#	166822
#	184845
#	209112
#	232200
#	242405
#	259650
#	285255
#	299330
#	316242
#	327070
#
# Disc length: 4546 seconds
#
# Revision: 0
# Processed by: cddbd v1.5.1PL2 Copyright (c) Steve Scherf et al.
# Submitted via: CDex 1.51
#
DISCID=1711c014
DTITLE=Sonny Boy Williamson and The Yardbirds with Eric Clapton - London 1963 The First Recodings! and Sonny Boy Williamson and The Yardbirds with Eric Clapton
DYEAR=1992
DGENRE=Blues
TTITLE0=Smokestack Lightnin'
TTITLE1=You Can't Judge A Book By Looing At The Cover
TTITLE2=Take it Easy Baby
TTITLE3=Talkin' About You
TTITLE4=Let it Rock
TTITLE5=I Wish You Would
TTITLE6=Boom Boom
TTITLE7=Honey In Your Hips
TTITLE8=Who Do You Love
TTITLE9=Bye Bye Bird
TTITLE10=Mister Downchild
TTITLE11=The River Rhine
TTITLE12=23 Hours Too Long
TTITLE13=A Lost Care
TTITLE14=Pontiac Blues
TTITLE15=Take it Easy Baby
TTITLE16=Out on The Water Coast
TTITLE17=I Don't Care No More
TTITLE18=Honey In Your Hips
TTITLE19=Western Arizona
EXTD=YEAR: 1992
EXTT0=
EXTT1=
EXTT2=
EXTT3=
EXTT4=
EXTT5=
EXTT6=
EXTT7=
EXTT8=
EXTT9=
EXTT10=
EXTT11=
EXTT12=
EXTT13=
EXTT14=
EXTT15=
EXTT16=
EXTT17=
EXTT18=
EXTT19=
PLAYORDER=
